<?xml version="1.0" standalone="no"?>
<!DOCTYPE svg PUBLIC "-//W3C//DTD SVG 20010904//EN"
 "http://www.w3.org/TR/2001/REC-SVG-20010904/DTD/svg10.dtd">
<svg version="1.0" xmlns="http://www.w3.org/2000/svg"
 width="351.000000pt" height="351.000000pt" viewBox="0 0 351.000000 351.000000"
 preserveAspectRatio="xMidYMid meet">
<metadata>
Created by potrace 1.11, written by Peter Selinger 2001-2013
</metadata>
<g transform="translate(0.000000,351.000000) scale(0.100000,-0.100000)"
fill="#000000" stroke="none">
<path d="M1698 3455 c-349 -176 -590 -389 -776 -687 -60 -97 -181 -350 -245
-513 -167 -428 -390 -1214 -432 -1525 -3 -25 -10 -69 -15 -99 -6 -30 -10 -58
-10 -62 0 -4 62 -8 138 -8 154 0 213 -6 331 -32 66 -15 191 -65 244 -99 26
-16 50 -30 52 -30 11 0 223 -158 355 -265 181 -145 359 -170 545 -76 33 17
105 59 160 95 213 138 302 172 434 163 160 -10 292 -48 616 -179 55 -22 120
-49 144 -60 24 -10 44 -18 46 -16 1 2 -40 100 -92 218 -211 480 -392 967 -473
1270 -30 113 -50 194 -65 265 -32 147 -36 170 -41 210 -2 22 -7 46 -10 54 -5
15 -20 118 -30 202 -3 30 -7 70 -10 89 -24 218 -24 540 1 700 24 151 59 307
83 369 15 39 -150 -19 -379 -134 -186 -93 -278 -127 -351 -128 -107 -2 -120
31 -108 261 2 34 1 64 -1 66 -2 2 -52 -20 -111 -49z"/>
</g>
</svg>
